<?xml version="1.0" encoding="UTF-8" standalone="no"?><!DOCTYPE svg PUBLIC "-//W3C//DTD SVG 1.1//EN" "http://www.w3.org/Graphics/SVG/1.1/DTD/svg11.dtd"><svg width="100%" height="100%" viewBox="0 0 156 63" version="1.1" xmlns="http://www.w3.org/2000/svg" xmlns:xlink="http://www.w3.org/1999/xlink" xml:space="preserve" xmlns:serif="http://www.serif.com/" style="fill-rule:evenodd;clip-rule:evenodd;stroke-linejoin:round;stroke-miterlimit:1.41421;"><rect id="Artboard2" x="-99.12" y="-66.96" width="396.253" height="357.932" style="fill:none;"/><path d="M45.927,42.064l-39.685,18.579l0,-5.749c0,0 19.913,-8.638 19.841,-22.646c-0.072,-14.008 -19.841,-22.727 -19.841,-22.727l0,-5.668c0,0 14.217,8.458 39.682,18.567" style="fill:#bc006c;"/><text x="73.245px" y="30.675px" style="font-family:'SegoeUI', 'Segoe UI', sans-serif;font-size:11.687px;fill:#bc006c;">O<tspan x="83.225px 90.845px 98.137px 107.603px 117.582px 125.296px 132.377px 141.74px 146.019px " y="30.675px 30.675px 30.675px 30.675px 30.675px 30.675px 30.675px 30.675px 30.675px ">RTHOPEDIE</tspan></text><text x="73.201px" y="42.013px" style="font-family:'SegoeUI', 'Segoe UI', sans-serif;font-size:11.687px;fill:#bc006c;">D<tspan x="82.505px 89.527px 93.839px 101.728px 105.949px 117.553px 125.208px " y="42.013px 42.013px 42.013px 42.013px 42.013px 42.013px 42.013px ">E KIMPE</tspan></text><g id="Krecht"><path d="M53.746,29.701l-4.039,1.124l0.03,2.885l24.045,24.044l0,-8.017l-20.036,-20.036Z" style="fill:#bc006c;"/><path d="M52.29,36.25l-4.008,-4.009l25.5,-25.5l0,8.142l-21.492,21.367Z" style="fill:#bc006c;"/></g></svg>